<svg xmlns:xlink="http://www.w3.org/1999/xlink"  width="91" height="51" viewBox="0 0 91 51" fill="none" xmlns="http://www.w3.org/2000/svg">
<path d="M18.8383 45.3241H15.8153L15.5359 44.8494C15.6167 44.634 15.7076 44.4152 15.7143 44.1795C15.748 42.8666 15.913 38.6923 15.1791 37.8204C14.085 36.7264 11.8935 36.9216 11.5771 38.5846C11.2303 40.4159 11.806 42.9508 11.5367 44.8023C11.503 45.0447 11.4188 45.1827 11.2202 45.3207H8.19721V39.167C8.19721 39.0054 7.74949 37.8709 7.58117 37.6959C6.91799 37.0058 5.30886 37.0428 4.58172 37.5881C4.48073 37.6656 4.0229 38.4836 4.0229 38.5375V45.3174H0.690186V34.4709H4.02627L4.13063 35.5145C6.05283 33.5485 9.1903 33.9962 10.8129 36.1372H11.0115C12.7721 33.5653 17.1114 33.6394 18.4647 36.6186C18.532 36.7701 18.8383 37.6487 18.8383 37.706V45.3174V45.3241Z" fill="#8A57DC"/>
<path d="M45.325 30.9326V45.3239H41.9889V43.8629C40.4033 45.4585 37.6766 45.9568 35.8385 44.4857C31.9066 41.3381 33.8052 33.3295 39.5449 34.3158C40.4976 34.4808 41.2415 35.1911 41.9889 35.7297V30.9326H45.325ZM39.0096 37.2345C36.7239 37.6317 36.5892 41.4391 38.6461 42.2975C42.5073 43.91 43.4667 36.4602 39.0096 37.2345Z" fill="#8A57DC"/>
<path d="M28.6411 45.3239V44.0716C28.1194 44.4082 27.6885 44.9065 27.0859 45.1253C18.7743 48.155 18.2895 31.5049 27.3249 34.6457L28.6411 35.5176L28.6681 34.6053L28.9812 34.2923L31.9907 34.3596L32.1893 34.7871C31.9772 37.965 32.4586 41.466 32.196 44.6035C32.1691 44.9199 32.1725 45.132 31.8729 45.3239H28.6411ZM25.6552 37.2311C24.0258 37.5981 23.5579 40.2407 24.4668 41.466C25.5777 42.9641 27.978 42.6948 28.5469 40.9543C29.2202 38.9042 27.9645 36.706 25.6552 37.2311Z" fill="#8A57DC"/>
<path d="M87.664 45.3241V43.8631C85.3311 46.2364 81.82 45.8661 80.1906 42.8902C77.915 38.7394 80.9716 32.5689 86.1424 34.6459L87.6674 35.7299V34.4776H91.0034V45.011L90.6904 45.3241H87.6674H87.664ZM84.4727 37.2313C81.9849 37.7935 82.4629 42.6747 85.2267 42.5535C88.748 42.402 88.2834 36.3695 84.4727 37.2313Z" fill="#8A57DC"/>
<path d="M63.4698 45.3239V43.8629C62.2041 45.0782 61.2177 45.5125 59.4201 45.3071C54.798 44.7752 54.0204 37.2177 57.7672 34.9285C59.7231 33.7335 61.8977 34.1576 63.4698 35.7297V34.4775H66.8093V45.3239H63.4732H63.4698ZM60.4872 37.2312C58.0937 37.7428 58.2183 41.8162 60.5445 42.5197C61.6217 42.8463 63.2914 41.7455 63.4631 40.6211C63.7694 38.5878 62.7461 36.7464 60.4906 37.2312H60.4872Z" fill="#8A57DC"/>
<path d="M78.0696 38.0222H74.9422L74.5214 37.0864C74.0266 36.6555 73.0369 36.6892 72.4309 36.8608C71.9293 37.7193 72.2155 38.066 73.0099 38.3892C74.8648 39.1466 77.7565 39.012 78.0629 41.6849C78.6318 46.6469 69.0342 46.5527 68.6875 41.7758H72.0236L72.2761 42.5669C72.8786 42.8799 74.3094 43.0482 74.747 42.5197L74.9254 41.9138C73.4812 40.3013 69.5123 41.0116 69.1117 38.3286C68.3071 32.9424 77.8272 32.8111 78.073 38.0222H78.0696Z" fill="#8A57DC"/>
<path d="M47.6208 34.4774H50.9603L51.0647 36.1438C52.014 34.9958 52.9633 34.3427 54.5051 34.2687V37.8135C53.5962 37.763 51.7682 37.763 51.3272 38.7022C51.2633 38.8369 50.9603 39.739 50.9603 39.7963V45.3239H47.9373L47.6242 45.0108V34.4774H47.6208Z" fill="#8A57DC"/>
<path d="M57.2118 25.7183C57.03 24.4863 56.626 23.3922 56.8415 22.113C58.1543 14.3602 71.4717 14.8651 73.4815 7.36484C72.5524 7.4591 71.4953 7.01137 70.8692 6.32463C70.6807 6.11928 70.4854 6.03175 70.5628 5.69512C71.0139 5.67492 71.2496 6.03175 71.7141 6.10245C75.6158 6.69493 76.2587 1.10674 72.4379 0.894658C73.1381 -0.0108987 74.7203 0.541188 75.4643 1.10337C78.0126 3.03231 76.8815 7.17632 73.6902 7.36147C74.313 9.30051 75.9053 11.0073 77.5851 12.1215C81.4228 14.6665 89.7445 16.7436 90.3571 22.0827C90.4985 23.3148 90.2663 24.4997 90.1653 25.715H57.2118V25.7183Z" fill="#8A57DC"/>
<path d="M90.7947 26.3447H56.5889V32.8115H90.7947V26.3447Z" fill="#8A57DC"/>
<path d="M25.0895 20.9211C25.884 23.6849 27.2575 27.9468 23.6352 29.162C22.4032 29.5761 19.9019 29.7242 19.4576 28.2195H19.1479C18.956 28.3036 18.9156 28.6504 18.7708 28.7783C17.6263 29.8017 14.3104 29.7377 13.5159 28.2195C12.2569 29.6401 9.54021 29.7781 7.87049 29.0644C7.21741 28.785 6.48354 27.8694 6.14353 27.2432C5.54769 26.1458 5.44333 24.0519 3.53122 25.1157C1.99615 25.9707 2.64923 27.2701 2.9825 28.6335C2.25537 28.5864 0.94921 29.5828 0.514947 28.7042C-1.31973 24.9877 2.02645 21.793 5.75303 22.4259C8.38218 22.8703 7.52375 26.3107 9.38536 26.718C12.166 27.3274 12.2872 25.6475 12.5767 23.4224L15.0813 23.8432C14.8726 24.4121 14.5629 26.0515 14.913 26.5127L17.027 26.7282C18.1178 26.4083 17.9595 23.3483 18.5385 23.2338L20.7132 23.6378C20.6526 24.6982 19.8885 26.0986 21.06 26.7315C21.8309 26.8056 22.7095 26.9099 23.3255 26.3578C24.0089 25.3075 22.2752 21.8132 22.5917 21.5608L25.0862 20.9312L25.0895 20.9211Z" fill="#8A57DC"/>
<path d="M42.8808 26.2871C43.4901 26.9705 44.9343 26.9672 45.5066 26.2131C46.4357 24.9877 46.6175 23.4863 48.0482 22.4966C51.0982 20.3825 54.6463 24.1596 53.3604 27.3913C52.3437 29.9397 49.2971 29.5694 47.2739 28.4585C45.5605 29.5997 43.3521 29.8286 41.679 28.4854C40.0564 29.603 38.1813 29.6569 36.3029 29.2159C35.9393 29.1317 34.6298 28.822 34.7106 28.3575L35.5286 26.3477C36.5992 26.8089 40.2483 27.3812 39.8174 25.5061C39.5717 24.4323 37.8144 22.1061 37.811 21.6483C37.811 21.3251 39.3226 20.295 39.5919 20.2883C40.2685 20.2748 41.5949 22.9679 41.8844 23.6378C42.1739 24.3077 42.4533 25.8125 42.8808 26.2905V26.2871ZM49.4183 24.4895C47.55 26.341 48.7955 27.0345 50.9669 26.6676C51.6031 26.2501 50.8288 24.7285 50.1892 24.4996L49.4183 24.4895Z" fill="#8A57DC"/>
<path d="M26.9848 33.2119L26.3586 30.9429C27.7894 30.677 30.1593 29.1217 30.4724 27.654C30.8157 26.0516 29.7284 24.8801 29.4826 23.4325L31.6439 22.5977C34.916 27.0076 32.1825 32.4982 26.9814 33.2119H26.9848Z" fill="#8A57DC"/>
</svg>
